# xmcd
#
# Track frame offsets:
#	150
#	16646
#	31585
#	45521
#	58556
#	73082
#	86242
#	100986
#	114237
#	131586
#	145626
#	158380
#	176056
#	194885
#
# Disc length: 2770 seconds
# Revision: 0
# Processed by: cddbd v1.5.2PL0 Copyright (c) Steve Scherf et al.
# Submitted via: dBpowerAMP V12.0
#
DISCID=b20ad00e
DTITLE=Graham Rodger - This Land
DYEAR=2011
DGENRE=Country
TTITLE0=This Land
TTITLE1=Cattlemans Cup
TTITLE2=An Affair Of The Heart
TTITLE3=The Shearing Is On
TTITLE4=Darling Rain
TTITLE5=Diesel And Dreams
TTITLE6=Lights On The Hill
TTITLE7=Fathers Day
TTITLE8=Midnight Train
TTITLE9=Rocky Creek
TTITLE10=Such A Shame
TTITLE11=Silent Deep Lagoon
TTITLE12=Red Dirt Country
TTITLE13=Awfully Good For The Shape I'm In
EXTD=
EXTT0=
EXTT1=
EXTT2=
EXTT3=
EXTT4=
EXTT5=
EXTT6=
EXTT7=
EXTT8=
EXTT9=
EXTT10=
EXTT11=
EXTT12=
EXTT13=
PLAYORDER=
